<svg xmlns="http://www.w3.org/2000/svg" width="94.308" height="25.487" viewBox="0 0 94.308 25.487">
  <path id="Netflix-Logo.wine" d="M12.968,23.844c-1.419.249-2.862.324-4.356.523L4.057,11.026V24.94c-1.419.149-2.713.348-4.057.548V0H3.783L8.96,14.461V0h4.007Zm7.84-14.511c1.543,0,3.908-.075,5.326-.075v3.982c-1.767,0-3.833,0-5.326.075V19.24c2.34-.149,4.679-.349,7.044-.423v3.833l-11.026.871V0H27.852V3.982H20.808ZM42.661,3.982H38.53V22.3c-1.344,0-2.688,0-3.982.05V3.982H30.416V0H42.662ZM49.133,9.06h5.451v3.982H49.133v9.035H45.225V0H56.351V3.982H49.133Zm13.689,9.533c2.265.05,4.555.224,6.77.348v3.933c-3.559-.224-7.119-.448-10.752-.523V0h3.982Zm10.13,4.555c1.269.075,2.613.149,3.908.3V0H72.952ZM94.308,0,89.255,12.121l5.053,13.366c-1.494-.2-2.987-.473-4.48-.722L86.965,17.4l-2.912,6.77c-1.444-.249-2.838-.324-4.281-.523L84.9,11.972,80.27,0h4.281l2.613,6.7L89.952,0Z" fill="#d81f26"/>
</svg>
